<?xml version="1.0" encoding="UTF-8" standalone="no"?>
<!-- Created with Inkscape (http://www.inkscape.org/) -->

<svg
   xmlns:dc="http://purl.org/dc/elements/1.1/"
   xmlns:cc="http://creativecommons.org/ns#"
   xmlns:rdf="http://www.w3.org/1999/02/22-rdf-syntax-ns#"
   xmlns:svg="http://www.w3.org/2000/svg"
   xmlns="http://www.w3.org/2000/svg"
   xmlns:sodipodi="http://sodipodi.sourceforge.net/DTD/sodipodi-0.dtd"
   xmlns:inkscape="http://www.inkscape.org/namespaces/inkscape"
   version="1.1"
   id="svg4088"
   width="1592"
   height="480"
   viewBox="0 0 1592 480"
   sodipodi:docname="1559408470063.svg"
   inkscape:version="0.92.3 (2405546, 2018-03-11)">
  <metadata
     id="metadata4094">
    <rdf:RDF>
      <cc:Work
         rdf:about="">
        <dc:format>image/svg+xml</dc:format>
        <dc:type
           rdf:resource="http://purl.org/dc/dcmitype/StillImage" />
        <dc:title></dc:title>
      </cc:Work>
    </rdf:RDF>
  </metadata>
  <defs
     id="defs4092" />
  <sodipodi:namedview
     pagecolor="#ffffff"
     bordercolor="#666666"
     borderopacity="1"
     objecttolerance="10"
     gridtolerance="10"
     guidetolerance="10"
     inkscape:pageopacity="0"
     inkscape:pageshadow="2"
     inkscape:window-width="1360"
     inkscape:window-height="705"
     id="namedview4090"
     showgrid="false"
     inkscape:zoom="0.43103697"
     inkscape:cx="590.28564"
     inkscape:cy="302.1147"
     inkscape:window-x="-8"
     inkscape:window-y="-8"
     inkscape:window-maximized="1"
     inkscape:current-layer="svg4088" />
  <path
     style="fill:#000000;stroke-width:0.8368417"
     d="m 293.7888,381.66269 c -5.76061,-1.54296 -12.19222,-5.43492 -15.14828,-9.16669 -2.63482,-3.32625 -3.59976,-10.32864 -1.95134,-14.1606 1.64504,-3.82411 8.51314,-9.44419 14.12984,-11.56228 6.75932,-2.54899 21.18925,-2.80073 28.99289,-0.50579 9.10174,2.67667 15.8414,8.65568 17.12384,15.19119 1.37394,7.0018 -5.1667,15.47417 -14.71039,19.05503 -6.50769,2.44173 -21.36858,3.04227 -28.43656,1.14914 z m -52.04978,-2.82813 c -8.93729,-1.60732 -15.64748,-5.19064 -21.84665,-11.66637 -11.47122,-11.98298 -6.22117,-25.4508 10.42276,-26.73723 15.3422,-1.18583 31.95019,8.84614 35.43914,21.4068 1.79684,6.4689 -1.68152,13.13772 -8.23817,15.79447 -3.55956,1.44233 -11.20353,2.02487 -15.77708,1.20233 z m 118.54128,0.0543 c -5.09688,-1.1181 -7.25937,-2.26079 -10.03128,-5.30066 -11.80621,-12.94753 9.75675,-34.91829 32.54177,-33.1572 9.3077,0.71941 15.28577,4.95917 16.31553,11.57129 1.88844,12.12568 -13.55475,25.71849 -30.82435,27.13102 -2.75925,0.22569 -6.36,0.11568 -8.00167,-0.24445 z M 294.176,333.00903 c -9.2735,-3.08771 -16.1754,-8.54723 -20.14583,-15.93572 -1.39015,-2.5869 -1.99501,-5.42088 -2.26933,-10.63259 -0.32976,-6.26471 -0.12485,-7.62967 1.73141,-11.53382 3.86269,-8.12413 10.02545,-13.32812 19.85015,-16.76195 10.06815,-3.51893 26.1329,-2.175 33.94479,2.8397 8.92156,5.72704 14.24212,13.73533 14.89179,22.41456 0.9968,13.31655 -7.50433,24.5184 -22.32769,29.42095 -6.56739,2.17204 -19.43481,2.26669 -25.67529,0.18887 z m -66.63815,-2.92106 c -10.2392,-2.51365 -20.37153,-9.79644 -24.18633,-17.38435 -6.05978,-12.05331 -2.84353,-25.12543 7.85738,-31.93551 13.67985,-8.70587 32.77244,-6.47355 45.06568,5.26911 5.88127,5.61787 8.59536,11.00997 9.14132,18.16114 1.12691,14.76045 -10.18581,25.71672 -27.51454,26.64758 -3.31634,0.17815 -7.92264,-0.15875 -10.36351,-0.75797 z m 142.16205,0.21647 c -9.49756,-1.79268 -18.16637,-8.49257 -20.86855,-16.12876 -3.43467,-9.70614 -0.74865,-19.62696 7.49277,-27.67456 14.30774,-13.97125 37.11642,-14.85322 49.67919,-1.92101 5.02204,5.16974 6.52698,8.77506 6.6068,15.82755 0.21302,18.82539 -21.48249,33.94127 -42.91021,29.89678 z M 172.04032,319.28677 c -13.0705,-6.37336 -21.1175,-24.43559 -16.8504,-37.82226 2.27626,-7.14104 6.22069,-10.20835 13.12752,-10.20835 6.14317,0 10.89971,2.28497 16.041,7.70586 11.9979,12.65038 13.74511,32.85271 3.4754,40.18486 -3.77717,2.69675 -10.42907,2.75566 -15.79352,0.13989 z m 254.15686,0.62358 c -5.54926,-2.94469 -7.93492,-8.0604 -7.90748,-16.95648 0.051,-16.52174 12.59188,-31.69771 26.19392,-31.69771 8.30703,0 13.10996,5.68797 13.71614,16.24363 0.57625,10.03421 -3.06411,19.52191 -10.19525,26.5715 -6.88928,6.8105 -15.58759,9.13953 -21.80733,5.83906 z m 118.10493,-15.44037 c -15.65467,-3.65438 -28.05495,-15.69011 -31.76042,-30.82674 -0.75979,-3.10374 -1.2931,-9.21777 -1.30054,-14.90989 l -0.0126,-9.64872 h 11.08659 11.0866 v 7.65205 c 0,17.64841 6.79547,25.73939 22.39011,26.65862 7.79247,0.45933 12.95269,-0.71599 17.7088,-4.03345 4.32556,-3.01714 8.27808,-9.71588 8.99563,-15.24581 1.59452,-12.28846 -4.39204,-17.75132 -29.05339,-26.51187 -15.01139,-5.33256 -21.71346,-8.90631 -27.95974,-14.90903 -6.66573,-6.40582 -9.16208,-11.95226 -9.74092,-21.64261 -0.94095,-15.7526 6.16918,-29.32293 19.80479,-37.79923 6.43039,-3.99733 11.82241,-5.52557 20.97704,-5.94543 9.02745,-0.41403 14.70694,0.72637 22.46162,4.51014 5.86174,2.86014 14.8589,11.82007 17.81348,17.73977 2.86864,5.74751 5.005,15.01158 4.6555,20.18801 l -0.25414,3.76404 h -11.08659 -11.08659 l -0.65694,-5.72867 c -1.40484,-12.25056 -8.14776,-18.39529 -20.23703,-18.44171 -4.81047,-0.0185 -10.84355,2.02211 -13.93366,4.7128 -4.81119,4.18931 -7.11863,14.98385 -4.15925,19.45758 2.07991,3.14422 10.00118,7.62179 21.92209,12.39166 21.52498,8.61269 28.93292,13.05209 35.80417,21.45655 5.27865,6.45649 7.38116,12.10523 7.8797,21.17002 0.77208,14.03868 -3.08826,24.73754 -12.32904,34.16974 -6.02372,6.1485 -12.23148,9.62305 -21.07854,11.7979 -6.31873,1.55331 -21.23123,1.53958 -27.93673,-0.0257 z m 128.53487,0.10849 c -27.67176,-6.14756 -48.71322,-27.75413 -53.24272,-54.67267 -0.54769,-3.25484 -0.90066,-22.40005 -0.90459,-49.06477 l -0.006,-43.72718 h 11.46703 11.46702 l 0.26758,45.7801 c 0.26759,45.7801 0.26759,45.7801 2.42585,51.13007 7.32641,18.16086 23.90843,29.54966 43.02412,29.54966 22.09159,0 41.14308,-15.76453 44.7224,-37.0064 0.53492,-3.17454 0.89289,-22.08349 0.89677,-47.36858 l 0.006,-42.08485 h 11.56967 11.56966 l -0.33879,46.60127 c -0.37502,51.58508 -0.3176,50.99603 -6.15707,63.16579 -8.13343,16.95049 -22.71075,29.62977 -41.17956,35.81778 -6.60457,2.21288 -8.74337,2.52374 -18.95747,2.75542 -7.68658,0.17434 -13.21363,-0.11668 -16.62989,-0.87564 z m 95.94168,-44.6873 c 0,-43.2296 0.0981,-46.2258 1.71429,-52.34944 6.42639,-24.34945 27.22174,-43.91926 52.29407,-49.2122 10.49358,-2.21527 25.11147,-1.43233 35.23695,1.88731 10.56828,3.4648 18.95225,8.41781 26.71742,15.78387 7.98261,7.57232 13.53304,16.03278 17.23913,26.27737 l 2.82213,7.80109 0.24566,47.83302 0.24565,47.83301 h -11.54545 -11.54546 v -44.37958 c 0,-49.66841 -0.11168,-50.8091 -5.86743,-59.92858 -8.47382,-13.42601 -21.30391,-21.11416 -36.66423,-21.97022 -13.77231,-0.76756 -24.16686,3.13934 -34.29241,12.88914 -7.00733,6.7473 -11.24576,13.92568 -12.7591,21.60936 -0.45452,2.30777 -0.81521,23.52733 -0.81521,47.95949 v 43.82039 h -11.51301 -11.513 z m 211.24542,44.5899 c -15.1872,-2.90805 -29.55722,-10.69672 -40.68243,-22.05024 -9.29298,-9.48369 -14.83755,-19.15995 -18.60328,-32.46604 -2.22447,-7.86008 -2.22447,-7.86008 -2.25758,-73.5535 l -0.0331,-65.69341 11.29979,-0.22913 11.2998,-0.22912 v 32.29572 c 0,22.50337 0.28605,32.57116 0.94342,33.20413 0.68936,0.66378 2.55274,-0.28886 6.91918,-3.53736 17.1691,-12.77327 41.2437,-18.06984 62.74382,-13.80406 31.6158,6.27281 56.1208,31.25323 60.7843,61.96359 1.2362,8.14046 0.6025,22.09897 -1.3177,29.02969 -7.8497,28.33065 -30.5048,49.29633 -59.4666,55.03205 -7.9648,1.57737 -23.49202,1.59587 -31.62962,0.0377 z m 28.23502,-22.15357 c 15.4217,-3.50081 29.0601,-14.04489 35.985,-27.8206 8.0236,-15.96163 7.7815,-32.02813 -0.7184,-47.68667 -7.0353,-12.96034 -21.4077,-23.37425 -36.8116,-26.67289 -5.7032,-1.22128 -17.70702,-1.0311 -23.48651,0.37209 -19.0216,4.6182 -33.83591,18.12431 -39.62857,36.12908 -2.3662,7.35465 -2.57904,19.77221 -0.47029,27.43802 1.84095,6.69229 6.14828,14.9446 10.68482,20.47077 6.2953,7.66861 18.17536,14.91528 29.02166,17.70282 6.12597,1.57439 18.63919,1.60755 25.42389,0.0674 z m 129.806,21.71941 c -13.1268,-3.30893 -23.5058,-9.36371 -33.328,-19.44257 -7.6411,-7.84072 -12.6928,-16.14019 -15.872,-26.07628 -2.3647,-7.39051 -2.3647,-7.39051 -2.6469,-54.40236 l -0.2822,-47.01185 h 11.518 11.5179 l 0.2723,45.7801 c 0.2666,44.83194 0.3111,45.87909 2.1467,50.55962 4.4256,11.28465 12.5392,20.39798 22.4685,25.23702 7.3374,3.57594 12.7264,4.86167 20.4257,4.87334 12.4878,0.019 23.1832,-4.29084 32.2498,-12.99527 6.6033,-6.33967 11.5859,-15.7949 12.8857,-24.45283 0.4728,-3.14941 0.8562,-24.1119 0.8656,-47.32772 l 0.017,-41.67426 h 11.5697 11.5697 l -0.327,46.60127 c -0.3622,51.63223 -0.2666,50.66586 -6.2661,63.30405 -9.1825,19.34308 -28.4747,34.14003 -49.3231,37.83033 -8.0637,1.42732 -22.1356,1.04397 -29.4611,-0.80259 z m 98.2343,-51.47231 0.2483,-53.17061 2.3642,-6.14911 c 3.2015,-8.32641 6.8424,-13.87971 13.1812,-20.10452 9.7389,-9.56374 21.8856,-14.98706 35.4103,-15.81017 l 7.4621,-0.45414 v 11.104 11.10401 l -5.4133,0.3319 c -6.8767,0.42162 -15.6265,4.42164 -20.7279,9.47586 -2.0058,1.98721 -4.9077,6.07868 -6.4488,9.09215 l -2.8018,5.47904 -0.2379,51.1361 -0.2381,51.13609 h -11.5232 -11.5233 z m 71.4583,8.89979 c 0,-47.49392 0.2209,-50.53571 4.4871,-61.80009 5.7459,-15.17088 19.7436,-29.59835 35.6861,-36.7815 22.7827,-10.26517 51.5949,-6.76553 70.9662,8.61981 11.2495,8.9348 18.9651,20.07859 23.2911,33.63955 2.3576,7.39051 2.3576,7.39051 2.6773,53.99178 l 0.3196,46.60126 h -11.5751 -11.5751 v -40.46404 c 0,-47.26692 -0.3635,-51.52995 -5.2218,-61.23041 -13.7035,-27.36178 -50.1189,-33.25281 -72.4563,-11.72152 -6.1805,5.95745 -10.9661,14.32683 -12.6375,22.10149 -0.6102,2.83803 -0.9356,19.47483 -0.9356,47.83301 v 43.48147 h -11.513 -11.513 z m -1083.30142,4.83272 c -10.8368,-2.62798 -19.89498,-11.40555 -23.25496,-22.53458 -1.05211,-3.48481 -1.34926,-6.89023 -1.10477,-12.66084 0.28525,-6.73255 0.72754,-8.70077 3.00645,-13.37892 3.50261,-7.19015 8.59025,-12.39052 15.17621,-15.51246 4.42273,-2.0965 6.38649,-2.5318 11.65889,-2.5844 8.94389,-0.0892 14.13714,1.77047 20.30924,7.2727 8.22342,7.3309 11.95924,15.36818 11.95924,25.72918 0,18.4075 -12.46694,33.00083 -29.12541,34.09311 -2.97748,0.19523 -6.85868,0.005 -8.62489,-0.42379 z m 73.67866,-0.39833 c -7.01748,-1.89841 -10.13503,-3.58592 -15.5613,-8.42326 -3.31708,-2.95707 -5.91904,-6.2696 -7.77294,-9.89565 -2.6592,-5.20115 -2.78675,-5.88444 -2.78675,-14.92859 0,-9.00888 0.13516,-9.74127 2.7308,-14.79829 10.57353,-20.60003 38.38666,-26.02063 55.79761,-10.8746 19.75974,17.18927 13.75113,48.76442 -10.98219,57.71128 -6.38007,2.30788 -15.46785,2.82074 -21.42523,1.20911 z m 75.14117,-0.42794 c -23.21973,-7.3074 -30.16413,-39.86759 -12.19344,-57.17139 16.64881,-16.031 42.54616,-9.49745 50.30947,12.69238 2.35027,6.71779 2.41683,17.78328 0.1452,24.14087 -5.9102,16.54081 -22.42795,25.32098 -38.26123,20.33814 z m 63.28353,-4.80635 c -4.47555,-1.95742 -9.2627,-7.39105 -11.60047,-13.16703 -2.53468,-6.26251 -3.16971,-19.94015 -1.22303,-26.34253 1.90091,-6.25186 5.86313,-12.60573 9.54886,-15.31266 4.542,-3.33578 12.38152,-3.74674 17.07312,-0.89496 11.58997,7.04492 15.86012,28.68931 8.80342,44.62243 -3.11224,7.02704 -10.45309,12.60751 -16.5846,12.60751 -1.40714,0 -4.11492,-0.68075 -6.0173,-1.51276 z m -272.85319,-0.5637 c -8.78605,-4.39997 -13.62554,-14.66139 -13.52665,-28.68126 0.0903,-12.79637 4.2136,-21.95862 12.03026,-26.73185 9.02193,-5.50922 19.08972,-1.28058 24.64373,10.35078 7.44212,15.58551 2.28426,38.71198 -9.97722,44.73518 -3.9539,1.94228 -9.66182,2.08406 -13.17012,0.32715 z m -1.29252,-68.38604 c -12.27386,-6.2803 -10.94246,-28.58107 2.4904,-41.71407 5.03968,-4.92718 9.39128,-6.81575 15.75743,-6.83865 4.77444,-0.0172 5.19026,0.14997 8.63791,3.47193 2.94304,2.83574 3.8222,4.41358 4.68993,8.41697 4.40108,20.30508 -16.38257,44.43783 -31.57567,36.66382 z m 274.02495,-0.0348 c -1.9688,-0.88573 -5.36257,-3.39241 -7.54173,-5.57043 -9.76051,-9.75541 -13.47221,-25.13648 -8.5316,-35.35451 2.87191,-5.93962 6.09904,-7.78742 12.95339,-7.41689 6.88394,0.37214 12.17259,3.48415 17.55688,10.33104 5.41291,6.88327 7.77847,14.29843 7.3238,22.95741 -0.57706,10.98983 -4.58404,15.87805 -13.43486,16.38951 -3.40218,0.19661 -5.75997,-0.18177 -8.32588,-1.33613 z m -214.20225,-2.61426 c -5.42655,-1.02688 -10.35775,-3.56104 -14.36688,-7.38319 -10.78053,-10.27773 -9.73527,-26.30768 2.43553,-37.3509 13.97132,-12.67694 35.87909,-13.43764 48.10006,-1.67019 10.33164,9.94824 9.73097,25.28753 -1.41032,36.01538 -9.26048,8.91683 -22.16119,12.77271 -34.75839,10.3889 z m 151.728,-0.42693 c -7.18969,-1.8607 -11.99517,-4.45706 -16.92244,-9.14307 -11.67129,-11.09981 -12.66153,-26.8421 -2.31745,-36.84125 16.47316,-15.92385 48.88496,-7.90145 56.72496,14.04026 2.02882,5.67804 2.1418,9.3704 0.45418,14.84237 -4.24174,13.75343 -21.25104,21.42063 -37.93925,17.10169 z m -80.2039,-1.01299 c -13.17386,-4.17711 -21.93712,-14.31599 -22.82056,-26.40283 -0.94019,-12.86339 7.25302,-24.50575 20.87418,-29.66167 6.73238,-2.54836 20.75339,-2.74394 27.10443,-0.37808 17.36308,6.46802 25.82323,22.60185 19.92729,38.0021 -2.54032,6.63533 -11.09875,14.8694 -18.22166,17.53109 -6.98722,2.61098 -20.09749,3.05479 -26.86368,0.90939 z M 223.522,123.45234 c -5.32803,-2.00392 -6.98288,-3.49832 -8.71782,-7.87258 -4.41354,-11.12785 8.7812,-25.647872 26.44043,-29.096102 14.45766,-2.82306 26.2566,4.23804 24.94191,14.926542 -1.91192,15.54416 -26.35932,28.17463 -42.66452,22.04214 z m 148.07051,0.37009 c -11.34367,-2.94162 -21.31094,-10.89087 -23.73881,-18.93252 -1.88428,-6.241152 -0.98899,-9.801722 3.52399,-14.014832 16.00993,-14.94612 55.24624,6.37496 46.94337,25.509122 -3.17376,7.31399 -14.76668,10.54016 -26.72855,7.43823 z m -76.12273,-4.10531 c -10.12446,-2.73869 -17.99536,-9.13912 -19.26734,-15.66773 -1.40568,-7.214902 5.00539,-15.668502 14.57344,-19.216452 7.57976,-2.81067 21.28118,-3.24031 29.22676,-0.91647 13.01433,3.80628 19.95409,12.93109 16.73386,22.002622 -1.60513,4.52173 -8.24892,10.30737 -14.40966,12.54843 -6.75561,2.45746 -20.09705,3.0782 -26.85706,1.2496 z"
     id="path4098"
     inkscape:connector-curvature="0" />
</svg>
